<svg xmlns="http://www.w3.org/2000/svg" viewBox="0 0 96 96" fill="none">
  <path d="M18 58h50c7 0 12-5 12-12V30" stroke="#fff" stroke-width="5" stroke-linecap="round"/>
  <path d="M23 58v13c0 6 5 11 11 11h11" stroke="#fff" stroke-width="5" stroke-linecap="round"/>
  <path d="M56 18c-4 9-1 15 8 19M37 18c8 6 10 13 5 21M72 16c5 7 5 14 0 21" stroke="#fff" stroke-width="5" stroke-linecap="round"/>
  <path d="M55 68c5 0 9 4 9 9M68 67c5-2 11 0 14 5" stroke="#fff" stroke-width="5" stroke-linecap="round"/>
</svg>
